<svg xmlns="http://www.w3.org/2000/svg" viewBox="0 0 900 1200">
  <defs>
    <linearGradient id="palmLeftTone" x1="0%" y1="0%" x2="0%" y2="100%">
      <stop offset="0%" stop-color="#160a13"/>
      <stop offset="60%" stop-color="#0d0610"/>
      <stop offset="100%" stop-color="#07030a"/>
    </linearGradient>
  </defs>
  <g fill="url(#palmLeftTone)">
    <path d="M350 1200C332 996 338 842 320 684C306 560 312 450 334 344C350 270 376 214 430 158C448 178 462 198 476 230C512 326 524 474 520 630C514 812 502 980 488 1200Z"/>
    <path d="M430 220C352 164 255 120 122 78C245 54 345 74 460 162Z"/>
    <path d="M430 226C322 192 188 184 30 218C172 130 310 122 452 176Z"/>
    <path d="M430 236C312 252 208 304 74 392C196 262 302 214 444 196Z"/>
    <path d="M432 242C330 292 260 362 160 492C246 352 332 250 450 200Z"/>
    <path d="M430 220C498 162 592 112 736 66C618 48 520 78 404 162Z"/>
    <path d="M432 226C536 190 662 176 836 198C684 122 542 120 408 178Z"/>
    <path d="M432 236C540 252 652 300 804 380C670 258 556 208 418 196Z"/>
    <path d="M432 244C534 292 620 360 736 470C632 338 540 248 414 204Z"/>
    <path d="M430 214C402 146 382 78 372 8C422 68 452 132 460 196Z"/>
    <path d="M430 214C458 142 490 72 552 4C544 96 512 156 454 202Z"/>
    <path d="M430 214C390 156 344 102 276 28C300 110 340 164 408 204Z"/>
  </g>
  <g fill="#07030a" opacity="0.36">
    <path d="M406 1200C396 1016 398 876 386 736C378 620 378 528 390 446C406 436 420 438 434 446C446 536 446 654 438 786C432 934 416 1072 410 1200Z"/>
    <path d="M430 236C352 282 302 334 236 422C314 330 368 288 446 238Z"/>
    <path d="M430 236C510 282 564 336 644 430C558 332 500 286 418 238Z"/>
  </g>
</svg>
