<svg xmlns="http://www.w3.org/2000/svg" viewBox="0 0 500 760">
  <defs>
    <linearGradient id="palmMidTone" x1="0%" y1="0%" x2="0%" y2="100%">
      <stop offset="0%" stop-color="#1a0c15"/>
      <stop offset="58%" stop-color="#0d0610"/>
      <stop offset="100%" stop-color="#09040c"/>
    </linearGradient>
  </defs>
  <g fill="url(#palmMidTone)">
    <path d="M184 760C176 636 180 542 170 446C162 366 166 292 184 234C198 190 214 158 236 132C252 154 264 178 272 212C292 292 296 418 292 536C288 634 278 706 264 760Z"/>
    <path d="M224 152C168 126 106 98 20 66C96 58 160 74 236 126Z"/>
    <path d="M224 156C146 154 82 168 6 220C86 164 156 144 236 138Z"/>
    <path d="M224 156C284 126 348 98 450 62C362 56 298 74 218 126Z"/>
    <path d="M224 160C298 156 370 170 496 226C386 164 302 142 214 138Z"/>
    <path d="M224 148C204 108 186 58 164 8C206 50 230 88 242 140Z"/>
    <path d="M224 148C248 108 280 62 336 6C326 78 292 118 244 142Z"/>
  </g>
  <g fill="#07030a" opacity="0.3">
    <path d="M216 760C210 648 214 560 206 476C200 408 202 352 214 302C224 296 234 298 244 304C250 372 250 468 244 558C238 650 222 714 216 760Z"/>
  </g>
</svg>
