<svg xmlns="http://www.w3.org/2000/svg" viewBox="0 0 900 1200">
  <defs>
    <linearGradient id="palmRightTone" x1="0%" y1="0%" x2="0%" y2="100%">
      <stop offset="0%" stop-color="#150912"/>
      <stop offset="56%" stop-color="#0c0510"/>
      <stop offset="100%" stop-color="#060209"/>
    </linearGradient>
  </defs>
  <g fill="url(#palmRightTone)">
    <path d="M560 1200C574 998 572 846 584 692C594 570 594 462 578 354C560 272 532 214 468 166C448 186 432 206 418 242C382 336 372 486 378 644C384 824 398 990 414 1200Z"/>
    <path d="M446 190C352 134 254 96 104 56C234 42 340 62 466 150Z"/>
    <path d="M446 198C330 174 202 172 34 224C188 126 332 122 474 168Z"/>
    <path d="M446 204C336 230 226 286 84 378C214 248 332 198 474 176Z"/>
    <path d="M446 214C350 270 274 348 176 474C270 338 350 240 478 184Z"/>
    <path d="M446 190C514 136 606 96 752 56C628 40 528 62 414 150Z"/>
    <path d="M446 198C554 166 682 160 858 186C702 118 560 114 418 164Z"/>
    <path d="M446 206C554 230 668 280 826 360C686 246 572 194 418 176Z"/>
    <path d="M446 214C542 266 624 336 742 446C640 322 552 230 414 182Z"/>
    <path d="M446 184C422 126 400 70 372 6C420 62 452 122 470 172Z"/>
    <path d="M446 184C478 124 516 64 590 0C574 88 536 146 476 176Z"/>
    <path d="M446 184C404 130 360 84 294 22C314 100 354 150 418 176Z"/>
  </g>
  <g fill="#060209" opacity="0.34">
    <path d="M488 1200C496 1020 496 886 506 748C514 634 516 544 506 458C492 450 478 450 464 458C456 548 458 662 466 792C474 938 484 1070 488 1200Z"/>
    <path d="M446 214C372 264 320 320 250 416C330 326 384 270 462 216Z"/>
    <path d="M446 214C520 264 578 320 662 420C578 326 518 268 432 216Z"/>
  </g>
</svg>
